HIERARCHY
ROOT RootJoint
{
    OFFSET   0.000000   0.000000   0.000000
    CHANNELS 6 Xposition Yposition Zposition Xrotation Yrotation Zrotation
    JOINT pelvis_lowerback
    {
        OFFSET   0.000000   0.093605   0.000000
        CHANNELS 3 Xrotation Yrotation Zrotation
        JOINT lowerback_torso
        {
            OFFSET   0.000000   0.100000   0.000000
            CHANNELS 3 Xrotation Yrotation Zrotation
            JOINT torso_head
            {
                OFFSET   0.000000   0.282350   0.000000
                CHANNELS 3 Xrotation Yrotation Zrotation
                End Site
                {
                    OFFSET   0.000000   0.192650   0.000000
                }
            }
            JOINT rTorso_Clavicle
            {
                OFFSET  -0.001000   0.157500   0.000000
                CHANNELS 3 Xrotation Yrotation Zrotation
                JOINT rShoulder
                {
                    OFFSET  -0.117647   0.000000   0.000000
                    CHANNELS 3 Xrotation Yrotation Zrotation
                    JOINT rElbow
                    {
                        OFFSET  -0.245000   0.000000   0.000000
                        CHANNELS 3 Xrotation Yrotation Zrotation
                        JOINT rWrist
                        {
                            OFFSET  -0.240000   0.000000   0.000000
                            CHANNELS 3 Xrotation Yrotation Zrotation
                            End Site
                            {
                                OFFSET  -0.116353  -0.002500   0.000000
                            }
                        }
                    }
                }
            }
            JOINT lTorso_Clavicle
            {
                OFFSET   0.001000   0.157500   0.000000
                CHANNELS 3 Xrotation Yrotation Zrotation
                JOINT lShoulder
                {
                    OFFSET   0.117647   0.000000   0.000000
                    CHANNELS 3 Xrotation Yrotation Zrotation
                    JOINT lElbow
                    {
                        OFFSET   0.245000   0.000000   0.000000
                        CHANNELS 3 Xrotation Yrotation Zrotation
                        JOINT lWrist
                        {
                            OFFSET   0.240000   0.000000   0.000000
                            CHANNELS 3 Xrotation Yrotation Zrotation
                            End Site
                            {
                                OFFSET   0.116353  -0.002500   0.000000
                            }
                        }
                    }
                }
            }
        }
    }
    JOINT rHip
    {
        OFFSET  -0.100000  -0.051395   0.000000
        CHANNELS 3 Xrotation Yrotation Zrotation
        JOINT rKnee
        {
            OFFSET   0.000000  -0.410000   0.000000
            CHANNELS 3 Xrotation Yrotation Zrotation
            JOINT rAnkle
            {
                OFFSET   0.000000  -0.390000   0.000000
                CHANNELS 3 Xrotation Yrotation Zrotation
                JOINT rToeJoint
                {
                    OFFSET   0.000000  -0.050000   0.130000
                    CHANNELS 3 Xrotation Yrotation Zrotation
                    End Site
                    {
                        OFFSET  -0.010000   0.002000   0.060000
                    }
                }
            }
        }
    }
    JOINT lHip
    {
        OFFSET   0.100000  -0.051395   0.000000
        CHANNELS 3 Xrotation Yrotation Zrotation
        JOINT lKnee
        {
            OFFSET   0.000000  -0.410000   0.000000
            CHANNELS 3 Xrotation Yrotation Zrotation
            JOINT lAnkle
            {
                OFFSET   0.000000  -0.390000   0.000000
                CHANNELS 3 Xrotation Yrotation Zrotation
                JOINT lToeJoint
                {
                    OFFSET   0.000000  -0.050000   0.130000
                    CHANNELS 3 Xrotation Yrotation Zrotation
                    End Site
                    {
                        OFFSET   0.010000   0.002000   0.060000
                    }
                }
            }
        }
    }
}
MOTION
Frames: 10
Frame Time:   0.008333
 -2.257048   0.471599   3.684722  69.897562 -80.788622  65.392052  77.068271   0.940316   4.830114 -10.971116   1.887271   0.563583  -6.098451   1.799319  -3.342203 -12.435040  22.860122   3.812425 -20.750245  10.605151  24.288047  -0.190017  81.984480   0.187388   0.949082   6.361278 -20.373227 -15.394814 -33.147804  -8.392650 -19.927830  -6.849636 -15.533163  -0.000762 -26.817812  -0.000548  -5.073184  -4.423056  20.989287 -94.437038  -9.921989   0.425964 125.323782  -0.010713   0.007639 -23.624475  -1.822247  -5.951547 -24.537701  -0.012225  -0.007035 -67.979474  -6.700675  16.350558 139.247927  -0.009369   0.020949 -47.245243  -0.253075  -4.634419 -19.209649  -0.000138  -0.004619
 -2.258202   0.464527   3.685504  70.053349 -81.517269  65.653407  77.196554   0.925704   4.703816 -10.785502   1.889350   0.514470  -6.380286   1.855201  -3.360733 -12.563462  22.969753   3.588019 -21.358883  11.122555  24.621725  -0.224903  83.052827   0.222364   0.886978   6.105007 -20.308526 -15.552574 -33.154605  -8.372379 -19.862983  -6.878399 -15.617665  -0.000314 -26.732615  -0.000315  -4.993377  -4.473180  21.044763 -94.648828 -10.045691   0.441770 126.489311  -0.011008   0.006185 -23.763426  -1.813022  -6.505007 -24.767115  -0.010432  -0.005786 -67.453891  -7.021939  16.442302 140.470769  -0.011584   0.019799 -46.469695  -0.508000  -5.131084 -23.206705  -0.003632   0.003595
 -2.259364   0.458693   3.686188  70.622285 -82.176297  66.322245  77.252233   0.894187   4.559103 -10.598964   1.872464   0.426475  -6.640596   1.910215  -3.385475 -12.665368  23.071179   3.387556 -21.920375  11.619124  24.961332  -0.261246  84.089686   0.258617   0.880549   6.026764 -20.198766 -15.687696 -33.174574  -8.383322 -19.794317  -6.906742 -15.724546  -0.000065 -26.654204  -0.000137  -4.905755  -4.533240  21.027333 -94.778586 -10.170845   0.487944 127.454233  -0.010912   0.004945 -23.884141  -1.789499  -7.034340 -24.960244  -0.008853  -0.004740 -66.904353  -7.332680  16.492095 141.451279  -0.013127   0.018180 -45.741805  -0.750281  -5.590401 -26.900666  -0.005665   0.011273
 -2.260543   0.453876   3.686776  71.494183 -82.773297  67.279866  77.251836   0.845368   4.408847 -10.433645   1.846789   0.320724  -6.883832   1.961603  -3.410790 -12.748554  23.161185   3.202668 -22.439783  12.080027  25.290054  -0.302621  85.064929   0.299563   0.894790   6.011989 -20.061955 -15.801075 -33.191820  -8.416829 -19.722445  -6.926940 -15.846988   0.000073 -26.582126   0.000008  -4.818755  -4.599265  20.950137 -94.840798 -10.303671   0.548749 128.260586  -0.010502   0.003934 -23.970762  -1.758390  -7.534153 -25.159888  -0.007560  -0.003894 -66.373221  -7.633538  16.517701 142.263631  -0.013840   0.016389 -45.047247  -0.968932  -6.009877 -30.097482  -0.006761   0.016448
 -2.261749   0.449913   3.687274  72.603745 -83.319220  68.464462  77.204163   0.779873   4.257763 -10.293208   1.812171   0.204178  -7.112807   2.009549  -3.435416 -12.817968  23.234455   3.028763 -22.921799  12.502323  25.601745  -0.354801  85.977109   0.350997   0.914316   6.014413 -19.920724 -15.895197 -33.201248  -8.467400 -19.648573  -6.936811 -15.979037   0.000151 -26.514483   0.000133  -4.735188  -4.663751  20.840327 -94.839899 -10.439923   0.617624 128.939185  -0.009882   0.003124 -24.025383  -1.725693  -8.004894 -25.380332  -0.006530  -0.003216 -65.868783  -7.920744  16.529133 142.949978  -0.013878   0.014597 -44.377733  -1.169674  -6.392588 -32.752667  -0.007166   0.019176
 -2.262989   0.446682   3.687691  73.909933 -83.821137  69.838041  77.114231   0.698853   4.109064 -10.178865   1.768250   0.080412  -7.328949   2.054333  -3.459126 -12.876966  23.289067   2.863308 -23.370055  12.886804  25.893830  -0.427144  86.828896   0.422367   0.934433   6.019587 -19.788028 -15.972393 -33.201602  -8.531808 -19.573668  -6.936333 -16.117454   0.000194 -26.450317   0.000244  -4.656572  -4.722153  20.716718 -94.780799 -10.575893   0.690787 129.512195  -0.009132   0.002480 -24.052202  -1.695087  -8.447592 -25.627317  -0.005718  -0.002673 -65.392108  -8.191451  16.532910 143.536676  -0.013423   0.012891 -43.729287  -1.357294  -6.741736 -34.879055  -0.007039   0.019925
 -2.264264   0.444087   3.688032  75.384615 -84.283518  71.374301  76.985529   0.603719   3.964991 -10.091079   1.715174  -0.048053  -7.533380   2.096206  -3.481866 -12.928058  23.325385   2.704800 -23.787575  13.235849  26.165506  -0.538544  87.623868   0.532664   0.953827   6.023252 -19.670094 -16.034739 -33.193417  -8.607791 -19.498458  -6.926539 -16.260359   0.000218 -26.389241   0.000345  -4.583460  -4.772581  20.590088 -94.669056 -10.709316   0.765710 129.996133  -0.008314   0.001971 -24.055187  -1.668960  -8.863307 -25.902899  -0.005078  -0.002237 -64.942061  -8.444126  16.533420 144.041038  -0.012632   0.011308 -43.100206  -1.534702  -7.060225 -36.515874  -0.006531   0.019238
 -2.265723   0.443451   3.688197  77.400094 -84.707577  73.557900  76.730182   0.523673   3.726803  -9.842604   1.501901  -0.205554  -7.831009   2.104551  -3.452522 -13.040131  23.379565   2.568789 -23.945090  13.491882  26.619053  -0.682649  88.370993   0.677400   0.980728   6.002837 -19.692785 -15.969156 -33.192139  -8.615067 -19.303454  -6.987839 -16.416649   0.000187 -26.399272   0.000276  -4.384656  -4.798596  20.630404 -94.275450 -10.664720   0.905346 130.221267  -0.007044   0.001460 -24.223740  -1.550130  -9.093492 -25.985289  -0.004116  -0.001805 -64.185943  -8.411976  16.546215 143.956163  -0.009820   0.008918 -42.273783  -1.785423  -7.340053 -40.741262  -0.010568   0.025325
 -2.267296   0.444232   3.688201  79.458883 -85.020329  75.758220  76.369829   0.441144   3.528891  -9.607128   1.288501  -0.355476  -8.113298   2.110916  -3.427346 -13.081637  23.414546   2.474345 -24.045677  13.713313  27.081147  -1.021704  89.066641   1.017347   0.991836   5.954725 -19.591455 -15.875842 -33.181618  -8.661823 -19.102930  -7.033161 -16.609849   0.000181 -26.414753   0.000219  -4.169096  -4.866325  20.594435 -93.776002 -10.631784   1.038028 130.250615  -0.005685   0.001151 -24.367976  -1.442828  -9.304622 -26.118485  -0.003369  -0.001464 -63.423147  -8.329597  16.564061 143.597422  -0.006802   0.006733 -41.543922  -2.019170  -7.608509 -44.780818  -0.015687   0.027773
 -2.268971   0.446102   3.688075  81.383690 -85.254658  77.802175  75.939267   0.346750   3.364320  -9.407908   1.078952  -0.490751  -8.382397   2.117145  -3.403507 -13.087074  23.427100   2.403659 -24.115595  13.904130  27.528841  -2.884647  89.714175   2.880924   0.993069   5.887863 -19.424103 -15.769234 -33.158473  -8.733554 -18.905131  -7.060378 -16.818522   0.000168 -26.425931   0.000170  -3.965639  -4.922573  20.500089 -93.195029 -10.608647   1.163487 130.133935  -0.004369   0.000970 -24.462642  -1.358927  -9.501435 -26.333766  -0.002815  -0.001198 -62.708991  -8.229855  16.580650 143.086153  -0.004165   0.004949 -40.867212  -2.235243  -7.857502 -48.169380  -0.019410   0.026818
